<svg width="30" height="30" viewBox="0 0 30 30" fill="none" xmlns="http://www.w3.org/2000/svg">
<circle cx="15" cy="15" r="15" fill="#0098A9"/>
<path d="M20.4785 9.37483C20.7339 9.13175 21.0736 8.99737 21.4261 9.00004C21.7787 9.00271 22.1164 9.14222 22.368 9.38913C22.6196 9.63604 22.7654 9.97104 22.7748 10.3234C22.7841 10.6759 22.6561 11.0181 22.4179 11.278L15.186 20.3223C15.0617 20.4563 14.9116 20.5638 14.7447 20.6384C14.5779 20.713 14.3977 20.7532 14.215 20.7566C14.0323 20.7599 13.8507 20.7264 13.6812 20.6581C13.5117 20.5897 13.3578 20.4878 13.2285 20.3586L8.43266 15.5627C8.2991 15.4383 8.19198 15.2882 8.11768 15.1214C8.04338 14.9547 8.00343 14.7747 8.00021 14.5922C7.99699 14.4096 8.03057 14.2283 8.09894 14.0591C8.16731 13.8898 8.26907 13.736 8.39815 13.6069C8.52724 13.4779 8.681 13.3761 8.85026 13.3077C9.01953 13.2394 9.20083 13.2058 9.38336 13.209C9.56588 13.2122 9.74589 13.2522 9.91263 13.3265C10.0794 13.4008 10.2295 13.5079 10.3539 13.6415L14.1493 17.435L20.4441 9.41471C20.4554 9.40075 20.4675 9.38744 20.4803 9.37483H20.4785Z" fill="white"/>
</svg>
